{"title":"X.2011.DVDRip.XVID.AC3.HQ.Hive-CM8","uid":6643623,"size":1542711325,"categoryP":"video","categoryS":"movies","magnet":"?xt=urn:btih:7474d06e46583c5c8ceab8bbf2d60e42a4b799f4&amp;dn=X.2011.DVDRip.XVID.AC3.HQ.Hive-CM8&amp;tr=udp%3A%2F%2Ftracker.openbittorrent.com%3A80&amp;tr=udp%3A%2F%2Fopen.demonii.com%3A1337&amp;tr=udp%3A%2F%2Ftracker.coppersurfer.tk%3A6969&amp;tr=udp%3A%2F%2Fexodus.desync.com%3A6969","seeders":0,"leechers":1,"uploader":"HeroMaster","files":-1,"time":1314852215,"description":"X.2011.DVDRip.XVID.AC3.HQ.Hive-CM8 \n\n\nThx Hive\n\n\nCM8 Doing It Right The First Time\n\n\nSource: DVD-R\n\n\nEncode:\nhere is the next quality movie\nDVD had nice quality, was just interlaced\ndid the usual sharpness, brightness, rgb, denoise\nlooks like a interesting movie  -  enjoy!\n\n\nVideo: 720x304 @bitrate 1800 2pass\nAudio: English AC3 5.1 @448\nSample: yes included\n\n &lt;a href=&quot;\nhttp://www.imdb.com/title/tt1661099/&quot; rel=&quot;nofollow&quot; target=&quot;_NEW&quot;&gt;\nhttp://www.imdb.com/title/tt1661099/&lt;/a&gt;\n\n\nGeneral\nFormat                           : AVI\nFormat/Info                      : Audio Video Interleave\nFile size                        : 1.43 GiB\nDuration                         : 1h 29mn\nOverall bit rate                 : 2 280 Kbps\nWriting application              : Nandub v1.0rc2\nWriting library                  : Nandub build 1853/release\n\nVideo\nID                               : 0\nFormat                           : MPEG-4 Visual\nFormat profile                   : Advanced Simple@L5\nFormat settings, BVOP            : 1\nFormat settings, QPel            : Yes\nFormat settings, GMC             : No warppoints\nFormat settings, Matrix          : Default (H.263)\nMuxing mode                      : Packed bitstream\nCodec ID                         : XVID\nCodec ID/Hint                    : XviD\nDuration                         : 1h 29mn\nBit rate                         : 1 823 Kbps\nWidth                            : 720 pixels\nHeight                           : 304 pixels\nDisplay aspect ratio             : 2.35:1\nFrame rate                       : 23.976 fps\nColor space                      : YUV\nChroma subsampling               : 4:2:0\nBit depth                        : 8 bits\nScan type                        : Progressive\nCompression mode                 : Lossy\nBits/(Pixel*Frame)               : 0.347\nStream size                      : 1.14 GiB (80%)\nWriting library                  : XviD 1.2.1 (UTC 2008-12-04)\n\nAudio\nID                               : 1\nFormat                           : AC-3\nFormat/Info                      : Audio Coding 3\nMode extension                   : CM (complete main)\nCodec ID                         : 2000\nDuration                         : 1h 29mn\nBit rate mode                    : Constant\nBit rate                         : 448 Kbps\nChannel(s)                       : 6 channels\nChannel positions                : Front: L C R, Side: L R, LFE\nSampling rate                    : 48.0 KHz\nBit depth                        : 16 bits\nCompression mode                 : Lossy\nStream size                      : 288 MiB (20%)\nAlignment                        : Split accross interleaves\nInterleave, duration             : 42 ms (1.00 video frame)\nInterleave, preload duration     : 500 ms\n\n\nPlot:\n\n\nA jaded call-girl. A fledgling hooker. The night from hell. \n'X' is a sizzling adults-only thriller about love, chance, \nescape and the oldest profession experienced by two women, \non a night that will change their lives forever.\n\n\nCast:\n\n\nViva Bianca           ...   Holly Rowe\nWayne Blair           ...   Bob\nPeter Docker          ...   Ligurian\nHanna Mangan Lawrence ...   Shay Ryan\n\n\nScreens:\n\n &lt;a href=&quot;\nhttp://www.pix2links.com/images/68093806786074264217.png&quot; rel=&quot;nofollow&quot; target=&quot;_NEW&quot;&gt;\nhttp://www.pix2links.com/images/68093806786074264217.png&lt;/a&gt;\n    \t &lt;a href=&quot;\nhttp://www.pix2links.com/images/17448201536424422854.png&quot; rel=&quot;nofollow&quot; target=&quot;_NEW&quot;&gt;\nhttp://www.pix2links.com/images/17448201536424422854.png&lt;/a&gt;\n    \t &lt;a href=&quot;\nhttp://www.pix2links.com/images/96114300457158745490.png&quot; rel=&quot;nofollow&quot; target=&quot;_NEW&quot;&gt;\nhttp://www.pix2links.com/images/96114300457158745490.png&lt;/a&gt;\n\n\nENJOY!","torrent":{"xt":"urn:btih:7474d06e46583c5c8ceab8bbf2d60e42a4b799f4","amp;dn":"X.2011.DVDRip.XVID.AC3.HQ.Hive-CM8","amp;tr":["udp%3A%2F%2Ftracker.openbittorrent.com%3A80","udp%3A%2F%2Fopen.demonii.com%3A1337","udp%3A%2F%2Ftracker.coppersurfer.tk%3A6969","udp%3A%2F%2Fexodus.desync.com%3A6969"],"infoHash":"7474d06e46583c5c8ceab8bbf2d60e42a4b799f4","infoHashBuffer":{"type":"Buffer","data":[116,116,208,110,70,88,60,92,140,234,184,187,242,214,14,66,164,183,153,244]},"announce":[],"urlList":[]}}